# MagicaVoxel @ Ephtracy

# group
o 

# material
mtllib gold.mtl
usemtl palette

# normals
vn -1 0 0
vn 1 0 0
vn 0 0 1
vn 0 0 -1
vn 0 -1 0
vn 0 1 0

# texcoords
vt 0.0214844 0.5
vt 0.978516 0.5
vt 0.986328 0.5

# verts
v -0.5 0 0.5
v -0.5 0 0
v -0.5 0 -0.1
v -0.5 0 -0.2
v -0.5 0 -0.4
v -0.5 0 -0.5
v -0.5 0.1 0.5
v -0.5 0.1 0.4
v -0.5 0.1 0
v -0.5 0.1 -0.1
v -0.5 0.1 -0.2
v -0.5 0.1 -0.4
v -0.5 0.2 0.1
v -0.5 0.2 -0.3
v -0.5 0.3 0.5
v -0.5 0.3 0.4
v -0.5 0.3 0.3
v -0.5 0.3 0.1
v -0.5 0.3 -0.2
v -0.5 0.3 -0.4
v -0.5 0.3 -0.5
v -0.5 0.4 0.3
v -0.5 0.4 0.2
v -0.5 0.4 0.1
v -0.5 0.4 -0.4
v -0.5 0.4 -0.5
v -0.5 0.5 0.5
v -0.5 0.5 0.4
v -0.5 0.6 0.4
v -0.5 0.6 0.3
v -0.5 0.6 0.2
v -0.5 0.6 0.1
v -0.5 0.6 -0.1
v -0.5 0.6 -0.2
v -0.5 0.6 -0.3
v -0.5 0.7 0.5
v -0.5 0.7 0.3
v -0.5 0.7 -0.1
v -0.5 0.7 -0.2
v -0.5 0.7 -0.3
v -0.5 0.8 0.5
v -0.5 0.8 0.4
v -0.5 0.8 0.1
v -0.5 0.8 0
v -0.5 0.8 -0.2
v -0.5 0.8 -0.3
v -0.5 0.8 -0.4
v -0.5 0.9 0.5
v -0.5 0.9 0.4
v -0.5 0.9 0.1
v -0.5 0.9 0
v -0.5 0.9 -0.1
v -0.5 0.9 -0.3
v -0.5 0.9 -0.4
v -0.5 1 0.5
v -0.5 1 -0.1
v -0.5 1 -0.3
v -0.5 1 -0.5
v 0.5 0 0.5
v 0.5 0 -0.5
v 0.5 0.1 0
v 0.5 0.1 -0.2
v 0.5 0.2 0.3
v 0.5 0.2 0.1
v 0.5 0.2 0
v 0.5 0.2 -0.2
v 0.5 0.3 0.3
v 0.5 0.3 0.1
v 0.5 0.3 -0.3
v 0.5 0.3 -0.4
v 0.5 0.4 0.2
v 0.5 0.4 0
v 0.5 0.4 -0.3
v 0.5 0.4 -0.4
v 0.5 0.5 0.4
v 0.5 0.5 0.2
v 0.5 0.5 0
v 0.5 0.5 -0.1
v 0.5 0.6 0.4
v 0.5 0.6 0.1
v 0.5 0.7 0.4
v 0.5 0.7 0.3
v 0.5 0.7 -0.4
v 0.5 0.7 -0.5
v 0.5 0.8 0.2
v 0.5 0.8 0.1
v 0.5 0.8 -0.4
v 0.5 0.8 -0.5
v 0.5 0.9 0.4
v 0.5 0.9 0.3
v 0.5 0.9 0.2
v 0.5 0.9 0.1
v 0.5 0.9 -0.1
v 0.5 1 0.5
v 0.5 1 -0.5
v -0.5 0 0.5
v -0.5 0.1 0.5
v -0.5 0.3 0.5
v -0.5 0.5 0.5
v -0.5 0.7 0.5
v -0.5 0.8 0.5
v -0.5 0.9 0.5
v -0.5 1 0.5
v -0.4 0 0.5
v -0.4 0.1 0.5
v -0.4 0.2 0.5
v -0.4 0.3 0.5
v -0.4 0.5 0.5
v -0.4 0.7 0.5
v -0.4 0.8 0.5
v -0.4 0.9 0.5
v -0.3 0 0.5
v -0.3 0.2 0.5
v -0.3 0.4 0.5
v -0.2 0 0.5
v -0.2 0.1 0.5
v -0.2 0.2 0.5
v -0.2 0.3 0.5
v -0.2 0.4 0.5
v -0.2 0.5 0.5
v -0.2 0.7 0.5
v -0.2 0.9 0.5
v -0.2 1 0.5
v -0.1 0 0.5
v -0.1 0.1 0.5
v -0.1 0.4 0.5
v -0.1 0.5 0.5
v -0.1 0.8 0.5
v -0.1 0.9 0.5
v 0 0.3 0.5
v 0 0.4 0.5
v 0 0.5 0.5
v 0 0.7 0.5
v 0 0.8 0.5
v 0.1 0.1 0.5
v 0.1 0.3 0.5
v 0.1 0.4 0.5
v 0.1 0.5 0.5
v 0.1 0.7 0.5
v 0.1 0.9 0.5
v 0.1 1 0.5
v 0.2 0.1 0.5
v 0.2 0.2 0.5
v 0.2 0.3 0.5
v 0.2 0.5 0.5
v 0.2 0.7 0.5
v 0.2 0.8 0.5
v 0.2 0.9 0.5
v 0.3 0.2 0.5
v 0.3 0.3 0.5
v 0.3 0.7 0.5
v 0.3 0.8 0.5
v 0.5 0 0.5
v 0.5 1 0.5
v -0.5 0 -0.5
v -0.5 0.3 -0.5
v -0.5 0.4 -0.5
v -0.5 1 -0.5
v -0.4 0.3 -0.5
v -0.4 0.4 -0.5
v -0.3 0.2 -0.5
v -0.3 0.4 -0.5
v -0.3 0.5 -0.5
v -0.3 0.6 -0.5
v -0.2 0 -0.5
v -0.2 0.2 -0.5
v -0.2 0.4 -0.5
v -0.2 0.5 -0.5
v -0.2 0.6 -0.5
v -0.2 0.8 -0.5
v -0.2 0.9 -0.5
v -0.1 0.4 -0.5
v -0.1 0.5 -0.5
v -0.1 0.6 -0.5
v -0.1 0.7 -0.5
v 0 0 -0.5
v 0 0.1 -0.5
v 0 0.2 -0.5
v 0 0.3 -0.5
v 0 0.4 -0.5
v 0 0.5 -0.5
v 0 0.7 -0.5
v 0 0.8 -0.5
v 0 0.9 -0.5
v 0.1 0.4 -0.5
v 0.1 0.5 -0.5
v 0.1 0.8 -0.5
v 0.1 0.9 -0.5
v 0.2 0.1 -0.5
v 0.2 0.3 -0.5
v 0.2 0.4 -0.5
v 0.2 0.5 -0.5
v 0.2 0.7 -0.5
v 0.2 0.8 -0.5
v 0.2 0.9 -0.5
v 0.3 0.4 -0.5
v 0.3 0.5 -0.5
v 0.3 0.7 -0.5
v 0.3 0.8 -0.5
v 0.3 0.9 -0.5
v 0.4 0.4 -0.5
v 0.4 0.5 -0.5
v 0.5 0 -0.5
v 0.5 0.7 -0.5
v 0.5 0.8 -0.5
v 0.5 1 -0.5
v -0.5 0 0.5
v -0.4 0 0.5
v -0.3 0 0.5
v -0.2 0 0.5
v -0.1 0 0.5
v 0.5 0 0.5
v -0.4 0 0.4
v -0.3 0 0.4
v -0.2 0 0.4
v -0.1 0 0.4
v 0 0 0.4
v 0.1 0 0.4
v 0.2 0 0.4
v 0.1 0 0.3
v 0.2 0 0.3
v -0.3 0 0.2
v -0.2 0 0.2
v 0.1 0 0.2
v 0.3 0 0.2
v 0.1 0 0.1
v 0.3 0 0.1
v 0.4 0 0.1
v -0.5 0 0
v -0.4 0 0
v -0.3 0 0
v -0.2 0 0
v 0.3 0 0
v 0.4 0 0
v -0.5 0 -0.1
v -0.4 0 -0.1
v -0.1 0 -0.1
v 0 0 -0.1
v -0.5 0 -0.2
v -0.4 0 -0.2
v 0.1 0 -0.3
v 0.4 0 -0.3
v -0.5 0 -0.4
v -0.4 0 -0.4
v -0.2 0 -0.4
v 0 0 -0.4
v 0.1 0 -0.4
v 0.4 0 -0.4
v -0.5 0 -0.5
v -0.2 0 -0.5
v 0 0 -0.5
v 0.5 0 -0.5
v -0.5 1 0.5
v -0.2 1 0.5
v 0.1 1 0.5
v 0.5 1 0.5
v -0.4 1 0.4
v -0.3 1 0.4
v -0.2 1 0.4
v 0.1 1 0.4
v -0.4 1 0.3
v -0.3 1 0.3
v -0.2 1 0.3
v -0.1 1 0.3
v 0.1 1 0.3
v -0.2 1 0.2
v -0.1 1 0.2
v 0.2 1 0.2
v 0.3 1 0.2
v -0.1 1 0.1
v 0 1 0.1
v 0.1 1 0.1
v -0.3 1 0
v -0.2 1 0
v -0.1 1 0
v 0 1 0
v 0.2 1 0
v 0.3 1 0
v -0.5 1 -0.1
v -0.4 1 -0.1
v -0.3 1 -0.1
v -0.2 1 -0.1
v 0.2 1 -0.1
v 0.3 1 -0.1
v -0.2 1 -0.2
v -0.1 1 -0.2
v 0 1 -0.2
v 0.1 1 -0.2
v 0.2 1 -0.2
v -0.5 1 -0.3
v -0.4 1 -0.3
v -0.3 1 -0.3
v -0.2 1 -0.3
v -0.1 1 -0.3
v 0.1 1 -0.3
v 0.2 1 -0.3
v 0.3 1 -0.3
v -0.4 1 -0.4
v -0.3 1 -0.4
v -0.5 1 -0.5
v 0.5 1 -0.5

# faces
f 7/2/1 2/2/1 1/2/1
f 8/2/1 2/2/1 7/2/1
f 9/1/1 3/1/1 2/1/1
f 9/2/1 2/2/1 8/2/1
f 10/2/1 4/2/1 3/2/1
f 10/1/1 3/1/1 9/1/1
f 11/1/1 5/1/1 4/1/1
f 11/2/1 4/2/1 10/2/1
f 12/2/1 6/2/1 5/2/1
f 12/1/1 5/1/1 11/1/1
f 13/2/1 11/2/1 10/2/1
f 13/2/1 9/2/1 8/2/1
f 13/2/1 12/2/1 11/2/1
f 13/2/1 10/2/1 9/2/1
f 14/2/1 12/2/1 13/2/1
f 15/3/1 8/3/1 7/3/1
f 16/2/1 13/2/1 8/2/1
f 16/3/1 8/3/1 15/3/1
f 17/2/1 13/2/1 16/2/1
f 18/3/1 14/3/1 13/3/1
f 18/2/1 13/2/1 17/2/1
f 19/3/1 14/3/1 18/3/1
f 20/2/1 6/2/1 12/2/1
f 20/2/1 12/2/1 14/2/1
f 21/2/1 6/2/1 20/2/1
f 22/2/1 17/2/1 16/2/1
f 22/2/1 16/2/1 15/2/1
f 22/3/1 18/3/1 17/3/1
f 23/3/1 18/3/1 22/3/1
f 24/2/1 19/2/1 18/2/1
f 24/3/1 18/3/1 23/3/1
f 25/1/1 21/1/1 20/1/1
f 25/2/1 20/2/1 14/2/1
f 26/1/1 21/1/1 25/1/1
f 27/2/1 23/2/1 22/2/1
f 27/2/1 22/2/1 15/2/1
f 28/2/1 23/2/1 27/2/1
f 29/3/1 28/3/1 27/3/1
f 29/2/1 23/2/1 28/2/1
f 30/2/1 23/2/1 29/2/1
f 31/1/1 24/1/1 23/1/1
f 31/2/1 23/2/1 30/2/1
f 32/2/1 19/2/1 24/2/1
f 32/1/1 24/1/1 31/1/1
f 33/2/1 19/2/1 32/2/1
f 34/3/1 14/3/1 19/3/1
f 34/2/1 19/2/1 33/2/1
f 35/2/1 26/2/1 25/2/1
f 35/3/1 14/3/1 34/3/1
f 35/2/1 25/2/1 14/2/1
f 36/3/1 30/3/1 29/3/1
f 36/3/1 29/3/1 27/3/1
f 37/2/1 33/2/1 32/2/1
f 37/3/1 30/3/1 36/3/1
f 37/2/1 31/2/1 30/2/1
f 37/2/1 32/2/1 31/2/1
f 38/3/1 34/3/1 33/3/1
f 38/2/1 33/2/1 37/2/1
f 39/2/1 35/2/1 34/2/1
f 39/3/1 34/3/1 38/3/1
f 40/2/1 26/2/1 35/2/1
f 40/2/1 35/2/1 39/2/1
f 41/2/1 38/2/1 37/2/1
f 41/2/1 39/2/1 38/2/1
f 41/2/1 37/2/1 36/2/1
f 42/2/1 39/2/1 41/2/1
f 43/2/1 39/2/1 42/2/1
f 44/2/1 39/2/1 43/2/1
f 45/1/1 40/1/1 39/1/1
f 45/2/1 39/2/1 44/2/1
f 46/2/1 26/2/1 40/2/1
f 46/1/1 40/1/1 45/1/1
f 47/2/1 26/2/1 46/2/1
f 48/1/1 42/1/1 41/1/1
f 49/2/1 43/2/1 42/2/1
f 49/1/1 42/1/1 48/1/1
f 50/3/1 44/3/1 43/3/1
f 50/2/1 43/2/1 49/2/1
f 51/2/1 45/2/1 44/2/1
f 51/3/1 44/3/1 50/3/1
f 51/2/1 46/2/1 45/2/1
f 52/2/1 46/2/1 51/2/1
f 53/3/1 47/3/1 46/3/1
f 53/2/1 46/2/1 52/2/1
f 54/2/1 26/2/1 47/2/1
f 54/3/1 47/3/1 53/3/1
f 55/2/1 50/2/1 49/2/1
f 55/2/1 49/2/1 48/2/1
f 55/2/1 52/2/1 51/2/1
f 55/2/1 51/2/1 50/2/1
f 56/3/1 53/3/1 52/3/1
f 56/2/1 52/2/1 55/2/1
f 57/2/1 54/2/1 53/2/1
f 57/3/1 53/3/1 56/3/1
f 58/2/1 26/2/1 54/2/1
f 58/2/1 54/2/1 57/2/1
f 59/2/2 60/2/2 61/2/2
f 61/2/2 60/2/2 62/2/2
f 59/2/2 61/2/2 63/2/2
f 63/2/2 61/2/2 64/2/2
f 61/1/2 62/1/2 65/1/2
f 64/2/2 61/2/2 65/2/2
f 62/2/2 60/2/2 66/2/2
f 65/1/2 62/1/2 66/1/2
f 63/1/2 64/1/2 67/1/2
f 59/2/2 63/2/2 67/2/2
f 64/2/2 65/2/2 68/2/2
f 67/1/2 64/1/2 68/1/2
f 65/2/2 66/2/2 68/2/2
f 66/2/2 60/2/2 69/2/2
f 68/2/2 66/2/2 69/2/2
f 69/2/2 60/2/2 70/2/2
f 67/2/2 68/2/2 71/2/2
f 68/2/2 69/2/2 71/2/2
f 71/2/2 69/2/2 72/2/2
f 69/1/2 70/1/2 73/1/2
f 72/2/2 69/2/2 73/2/2
f 70/2/2 60/2/2 74/2/2
f 73/1/2 70/1/2 74/1/2
f 59/2/2 67/2/2 75/2/2
f 67/2/2 71/2/2 75/2/2
f 71/3/2 72/3/2 76/3/2
f 75/2/2 71/2/2 76/2/2
f 72/2/2 73/2/2 77/2/2
f 76/3/2 72/3/2 77/3/2
f 73/2/2 74/2/2 77/2/2
f 77/2/2 74/2/2 78/2/2
f 75/3/2 76/3/2 79/3/2
f 59/2/2 75/2/2 79/2/2
f 77/3/2 78/3/2 79/3/2
f 76/3/2 77/3/2 79/3/2
f 79/3/2 78/3/2 80/3/2
f 59/2/2 79/2/2 81/2/2
f 79/2/2 80/2/2 81/2/2
f 81/2/2 80/2/2 82/2/2
f 74/2/2 60/2/2 83/2/2
f 78/2/2 74/2/2 83/2/2
f 83/2/2 60/2/2 84/2/2
f 82/2/2 80/2/2 85/2/2
f 80/3/2 78/3/2 86/3/2
f 85/2/2 80/2/2 86/2/2
f 78/2/2 83/2/2 87/2/2
f 83/1/2 84/1/2 87/1/2
f 87/1/2 84/1/2 88/1/2
f 81/1/2 82/1/2 89/1/2
f 59/2/2 81/2/2 89/2/2
f 82/2/2 85/2/2 90/2/2
f 89/1/2 82/1/2 90/1/2
f 85/1/2 86/1/2 91/1/2
f 90/2/2 85/2/2 91/2/2
f 86/3/2 78/3/2 92/3/2
f 91/1/2 86/1/2 92/1/2
f 87/2/2 88/2/2 93/2/2
f 92/3/2 78/3/2 93/3/2
f 78/2/2 87/2/2 93/2/2
f 59/2/2 89/2/2 94/2/2
f 91/2/2 92/2/2 94/2/2
f 92/2/2 93/2/2 94/2/2
f 89/2/2 90/2/2 94/2/2
f 90/2/2 91/2/2 94/2/2
f 93/2/2 88/2/2 95/2/2
f 94/2/2 93/2/2 95/2/2
f 104/2/3 97/2/3 96/2/3
f 105/3/3 98/3/3 97/3/3
f 105/2/3 97/2/3 104/2/3
f 106/3/3 98/3/3 105/3/3
f 107/2/3 99/2/3 98/2/3
f 107/3/3 98/3/3 106/3/3
f 108/3/3 100/3/3 99/3/3
f 108/2/3 99/2/3 107/2/3
f 109/2/3 101/2/3 100/2/3
f 109/3/3 100/3/3 108/3/3
f 110/1/3 102/1/3 101/1/3
f 110/2/3 101/2/3 109/2/3
f 111/2/3 103/2/3 102/2/3
f 111/1/3 102/1/3 110/1/3
f 112/3/3 106/3/3 105/3/3
f 112/3/3 105/3/3 104/3/3
f 113/2/3 110/2/3 109/2/3
f 113/3/3 106/3/3 112/3/3
f 113/2/3 107/2/3 106/2/3
f 113/2/3 111/2/3 110/2/3
f 113/2/3 109/2/3 108/2/3
f 113/2/3 108/2/3 107/2/3
f 114/2/3 111/2/3 113/2/3
f 115/2/3 113/2/3 112/2/3
f 116/2/3 113/2/3 115/2/3
f 117/1/3 114/1/3 113/1/3
f 117/2/3 113/2/3 116/2/3
f 118/1/3 114/1/3 117/1/3
f 119/2/3 111/2/3 114/2/3
f 119/1/3 114/1/3 118/1/3
f 120/2/3 111/2/3 119/2/3
f 121/2/3 111/2/3 120/2/3
f 122/2/3 103/2/3 111/2/3
f 122/2/3 111/2/3 121/2/3
f 123/2/3 103/2/3 122/2/3
f 124/3/3 116/3/3 115/3/3
f 125/2/3 118/2/3 117/2/3
f 125/3/3 116/3/3 124/3/3
f 125/2/3 117/2/3 116/2/3
f 126/3/3 119/3/3 118/3/3
f 126/3/3 120/3/3 119/3/3
f 127/1/3 121/1/3 120/1/3
f 127/3/3 120/3/3 126/3/3
f 128/2/3 122/2/3 121/2/3
f 129/3/3 123/3/3 122/3/3
f 129/2/3 122/2/3 128/2/3
f 130/3/3 126/3/3 118/3/3
f 130/2/3 118/2/3 125/2/3
f 130/2/3 125/2/3 124/2/3
f 131/2/3 127/2/3 126/2/3
f 131/3/3 126/3/3 130/3/3
f 132/1/3 121/1/3 127/1/3
f 132/2/3 127/2/3 131/2/3
f 133/2/3 128/2/3 121/2/3
f 133/1/3 121/1/3 132/1/3
f 134/3/3 129/3/3 128/3/3
f 134/2/3 128/2/3 133/2/3
f 135/2/3 130/2/3 124/2/3
f 136/1/3 131/1/3 130/1/3
f 136/2/3 130/2/3 135/2/3
f 137/3/3 132/3/3 131/3/3
f 137/1/3 131/1/3 136/1/3
f 138/1/3 133/1/3 132/1/3
f 138/3/3 132/3/3 137/3/3
f 139/3/3 134/3/3 133/3/3
f 139/1/3 133/1/3 138/1/3
f 140/3/3 123/3/3 129/3/3
f 140/3/3 134/3/3 139/3/3
f 140/3/3 129/3/3 134/3/3
f 141/3/3 123/3/3 140/3/3
f 142/1/3 136/1/3 135/1/3
f 142/2/3 135/2/3 124/2/3
f 143/1/3 136/1/3 142/1/3
f 144/3/3 137/3/3 136/3/3
f 144/1/3 136/1/3 143/1/3
f 144/3/3 138/3/3 137/3/3
f 145/2/3 139/2/3 138/2/3
f 145/3/3 138/3/3 144/3/3
f 146/3/3 140/3/3 139/3/3
f 146/2/3 139/2/3 145/2/3
f 147/3/3 140/3/3 146/3/3
f 148/2/3 141/2/3 140/2/3
f 148/3/3 140/3/3 147/3/3
f 149/1/3 144/1/3 143/1/3
f 149/2/3 143/2/3 142/2/3
f 150/2/3 145/2/3 144/2/3
f 150/1/3 144/1/3 149/1/3
f 150/2/3 146/2/3 145/2/3
f 151/1/3 147/1/3 146/1/3
f 151/2/3 146/2/3 150/2/3
f 152/2/3 148/2/3 147/2/3
f 152/1/3 147/1/3 151/1/3
f 153/2/3 151/2/3 150/2/3
f 153/2/3 142/2/3 124/2/3
f 153/2/3 152/2/3 151/2/3
f 153/2/3 149/2/3 142/2/3
f 153/2/3 150/2/3 149/2/3
f 154/2/3 141/2/3 148/2/3
f 154/2/3 152/2/3 153/2/3
f 154/2/3 148/2/3 152/2/3
f 155/2/4 156/2/4 159/2/4
f 156/1/4 157/1/4 159/1/4
f 157/2/4 158/2/4 160/2/4
f 159/1/4 157/1/4 160/1/4
f 155/2/4 159/2/4 161/2/4
f 159/2/4 160/2/4 161/2/4
f 160/2/4 158/2/4 162/2/4
f 161/2/4 160/2/4 162/2/4
f 162/2/4 158/2/4 163/2/4
f 163/2/4 158/2/4 164/2/4
f 155/2/4 161/2/4 165/2/4
f 161/3/4 162/3/4 166/3/4
f 165/2/4 161/2/4 166/2/4
f 162/2/4 163/2/4 167/2/4
f 166/3/4 162/3/4 167/3/4
f 163/3/4 164/3/4 168/3/4
f 167/2/4 163/2/4 168/2/4
f 164/2/4 158/2/4 169/2/4
f 168/3/4 164/3/4 169/3/4
f 169/2/4 158/2/4 170/2/4
f 170/2/4 158/2/4 171/2/4
f 167/2/4 168/2/4 172/2/4
f 166/2/4 167/2/4 172/2/4
f 168/1/4 169/1/4 173/1/4
f 172/2/4 168/2/4 173/2/4
f 169/2/4 170/2/4 174/2/4
f 173/1/4 169/1/4 174/1/4
f 174/2/4 170/2/4 175/2/4
f 165/1/4 166/1/4 176/1/4
f 176/1/4 166/1/4 177/1/4
f 166/2/4 172/2/4 178/2/4
f 177/1/4 166/1/4 178/1/4
f 178/2/4 172/2/4 179/2/4
f 172/3/4 173/3/4 180/3/4
f 179/2/4 172/2/4 180/2/4
f 173/3/4 174/3/4 180/3/4
f 174/3/4 175/3/4 180/3/4
f 180/3/4 175/3/4 181/3/4
f 175/2/4 170/2/4 182/2/4
f 181/3/4 175/3/4 182/3/4
f 170/1/4 171/1/4 183/1/4
f 182/2/4 170/2/4 183/2/4
f 171/2/4 158/2/4 184/2/4
f 183/1/4 171/1/4 184/1/4
f 180/3/4 181/3/4 185/3/4
f 179/3/4 180/3/4 185/3/4
f 181/1/4 182/1/4 186/1/4
f 185/3/4 181/3/4 186/3/4
f 182/3/4 183/3/4 187/3/4
f 183/2/4 184/2/4 187/2/4
f 184/2/4 158/2/4 188/2/4
f 187/2/4 184/2/4 188/2/4
f 176/2/4 177/2/4 189/2/4
f 178/1/4 179/1/4 189/1/4
f 177/1/4 178/1/4 189/1/4
f 179/3/4 185/3/4 190/3/4
f 189/1/4 179/1/4 190/1/4
f 185/2/4 186/2/4 191/2/4
f 190/3/4 185/3/4 191/3/4
f 186/1/4 182/1/4 192/1/4
f 191/2/4 186/2/4 192/2/4
f 182/3/4 187/3/4 193/3/4
f 192/1/4 182/1/4 193/1/4
f 187/3/4 188/3/4 193/3/4
f 193/3/4 188/3/4 194/3/4
f 188/2/4 158/2/4 195/2/4
f 194/3/4 188/3/4 195/3/4
f 190/2/4 191/2/4 196/2/4
f 191/2/4 192/2/4 196/2/4
f 189/2/4 190/2/4 196/2/4
f 192/2/4 193/2/4 196/2/4
f 196/2/4 193/2/4 197/2/4
f 193/3/4 194/3/4 198/3/4
f 197/2/4 193/2/4 198/2/4
f 194/1/4 195/1/4 199/1/4
f 198/3/4 194/3/4 199/3/4
f 195/2/4 158/2/4 200/2/4
f 199/1/4 195/1/4 200/1/4
f 196/3/4 197/3/4 201/3/4
f 189/2/4 196/2/4 201/2/4
f 197/2/4 198/2/4 202/2/4
f 201/3/4 197/3/4 202/3/4
f 189/2/4 201/2/4 203/2/4
f 176/2/4 189/2/4 203/2/4
f 201/2/4 202/2/4 203/2/4
f 198/1/4 199/1/4 204/1/4
f 203/2/4 202/2/4 204/2/4
f 202/2/4 198/2/4 204/2/4
f 199/2/4 200/2/4 205/2/4
f 204/1/4 199/1/4 205/1/4
f 200/2/4 158/2/4 206/2/4
f 205/2/4 200/2/4 206/2/4
f 213/2/5 208/2/5 207/2/5
f 213/3/5 209/3/5 208/3/5
f 214/2/5 210/2/5 209/2/5
f 214/3/5 209/3/5 213/3/5
f 215/3/5 211/3/5 210/3/5
f 215/2/5 210/2/5 214/2/5
f 216/2/5 212/2/5 211/2/5
f 216/3/5 211/3/5 215/3/5
f 217/2/5 212/2/5 216/2/5
f 218/2/5 212/2/5 217/2/5
f 219/2/5 212/2/5 218/2/5
f 220/2/5 218/2/5 217/2/5
f 220/1/5 219/1/5 218/1/5
f 221/2/5 212/2/5 219/2/5
f 221/1/5 219/1/5 220/1/5
f 222/2/5 215/2/5 214/2/5
f 222/2/5 214/2/5 213/2/5
f 222/2/5 216/2/5 215/2/5
f 223/2/5 216/2/5 222/2/5
f 224/2/5 221/2/5 220/2/5
f 224/2/5 220/2/5 217/2/5
f 225/2/5 212/2/5 221/2/5
f 225/2/5 221/2/5 224/2/5
f 226/2/5 224/2/5 217/2/5
f 226/1/5 225/1/5 224/1/5
f 227/2/5 212/2/5 225/2/5
f 227/1/5 225/1/5 226/1/5
f 228/2/5 212/2/5 227/2/5
f 229/2/5 213/2/5 207/2/5
f 229/2/5 222/2/5 213/2/5
f 230/2/5 222/2/5 229/2/5
f 231/1/5 223/1/5 222/1/5
f 231/2/5 222/2/5 230/2/5
f 232/2/5 216/2/5 223/2/5
f 232/1/5 223/1/5 231/1/5
f 233/1/5 228/1/5 227/1/5
f 233/2/5 227/2/5 226/2/5
f 234/2/5 212/2/5 228/2/5
f 234/1/5 228/1/5 233/1/5
f 235/1/5 230/1/5 229/1/5
f 236/2/5 231/2/5 230/2/5
f 236/1/5 230/1/5 235/1/5
f 236/2/5 232/2/5 231/2/5
f 237/1/5 217/1/5 216/1/5
f 237/2/5 232/2/5 236/2/5
f 237/2/5 216/2/5 232/2/5
f 238/2/5 226/2/5 217/2/5
f 238/1/5 217/1/5 237/1/5
f 238/2/5 233/2/5 226/2/5
f 238/2/5 234/2/5 233/2/5
f 239/2/5 237/2/5 236/2/5
f 239/2/5 236/2/5 235/2/5
f 239/2/5 238/2/5 237/2/5
f 240/2/5 238/2/5 239/2/5
f 241/2/5 234/2/5 238/2/5
f 241/2/5 238/2/5 240/2/5
f 242/2/5 212/2/5 234/2/5
f 242/2/5 234/2/5 241/2/5
f 243/1/5 240/1/5 239/1/5
f 244/2/5 241/2/5 240/2/5
f 244/1/5 240/1/5 243/1/5
f 245/2/5 241/2/5 244/2/5
f 246/2/5 241/2/5 245/2/5
f 247/1/5 242/1/5 241/1/5
f 247/2/5 241/2/5 246/2/5
f 248/2/5 212/2/5 242/2/5
f 248/1/5 242/1/5 247/1/5
f 249/2/5 244/2/5 243/2/5
f 249/2/5 245/2/5 244/2/5
f 250/1/5 246/1/5 245/1/5
f 250/2/5 245/2/5 249/2/5
f 251/2/5 247/2/5 246/2/5
f 251/1/5 246/1/5 250/1/5
f 251/2/5 248/2/5 247/2/5
f 252/2/5 212/2/5 248/2/5
f 252/2/5 248/2/5 251/2/5
f 253/2/6 254/2/6 257/2/6
f 257/2/6 254/2/6 258/2/6
f 254/3/6 255/3/6 259/3/6
f 258/2/6 254/2/6 259/2/6
f 255/2/6 256/2/6 260/2/6
f 259/3/6 255/3/6 260/3/6
f 257/1/6 258/1/6 261/1/6
f 253/2/6 257/2/6 261/2/6
f 258/2/6 259/2/6 262/2/6
f 261/1/6 258/1/6 262/1/6
f 259/2/6 260/2/6 262/2/6
f 262/2/6 260/2/6 263/2/6
f 263/2/6 260/2/6 264/2/6
f 260/2/6 256/2/6 265/2/6
f 264/2/6 260/2/6 265/2/6
f 263/3/6 264/3/6 266/3/6
f 261/2/6 262/2/6 266/2/6
f 262/2/6 263/2/6 266/2/6
f 264/1/6 265/1/6 267/1/6
f 266/3/6 264/3/6 267/3/6
f 265/2/6 256/2/6 268/2/6
f 268/2/6 256/2/6 269/2/6
f 267/1/6 265/1/6 270/1/6
f 266/2/6 267/2/6 270/2/6
f 270/1/6 265/1/6 271/1/6
f 265/2/6 268/2/6 272/2/6
f 271/1/6 265/1/6 272/1/6
f 261/2/6 266/2/6 273/2/6
f 266/2/6 270/2/6 273/2/6
f 273/2/6 270/2/6 274/2/6
f 270/3/6 271/3/6 275/3/6
f 274/2/6 270/2/6 275/2/6
f 271/2/6 272/2/6 276/2/6
f 275/3/6 271/3/6 276/3/6
f 272/2/6 268/2/6 277/2/6
f 276/2/6 272/2/6 277/2/6
f 268/1/6 269/1/6 277/1/6
f 269/2/6 256/2/6 278/2/6
f 277/1/6 269/1/6 278/1/6
f 253/2/6 261/2/6 279/2/6
f 261/2/6 273/2/6 279/2/6
f 279/2/6 273/2/6 280/2/6
f 273/3/6 274/3/6 281/3/6
f 280/2/6 273/2/6 281/2/6
f 275/2/6 276/2/6 282/2/6
f 281/3/6 274/3/6 282/3/6
f 274/2/6 275/2/6 282/2/6
f 276/1/6 277/1/6 283/1/6
f 277/2/6 278/2/6 283/2/6
f 278/2/6 256/2/6 284/2/6
f 283/2/6 278/2/6 284/2/6
f 282/2/6 276/2/6 285/2/6
f 280/2/6 281/2/6 285/2/6
f 281/2/6 282/2/6 285/2/6
f 285/2/6 276/2/6 286/2/6
f 276/1/6 283/1/6 287/1/6
f 286/2/6 276/2/6 287/2/6
f 283/1/6 284/1/6 287/1/6
f 287/1/6 284/1/6 288/1/6
f 288/1/6 284/1/6 289/1/6
f 279/3/6 280/3/6 290/3/6
f 280/2/6 285/2/6 291/2/6
f 290/3/6 280/3/6 291/3/6
f 291/2/6 285/2/6 292/2/6
f 285/3/6 286/3/6 293/3/6
f 292/2/6 285/2/6 293/2/6
f 286/2/6 287/2/6 294/2/6
f 293/3/6 286/3/6 294/3/6
f 287/2/6 288/2/6 294/2/6
f 288/3/6 289/3/6 295/3/6
f 294/2/6 288/2/6 295/2/6
f 289/1/6 284/1/6 296/1/6
f 295/3/6 289/3/6 296/3/6
f 284/2/6 256/2/6 297/2/6
f 296/1/6 284/1/6 297/1/6
f 291/3/6 292/3/6 298/3/6
f 290/2/6 291/2/6 298/2/6
f 295/2/6 296/2/6 299/2/6
f 298/3/6 292/3/6 299/3/6
f 294/2/6 295/2/6 299/2/6
f 293/2/6 294/2/6 299/2/6
f 296/2/6 297/2/6 299/2/6
f 292/2/6 293/2/6 299/2/6
f 290/2/6 298/2/6 300/2/6
f 298/2/6 299/2/6 300/2/6
f 297/2/6 256/2/6 301/2/6
f 300/2/6 299/2/6 301/2/6
f 299/2/6 297/2/6 301/2/6
